<svg xmlns="http://www.w3.org/2000/svg" viewBox="0 0 424.3 168.6">
  <path d="M103.9 45.7c.7 0 1.3.2 1.7.7.4.5.6 1.1.6 1.9 0 1.5-.3 2.7-.9 3.5-.6.8-1.4 1.5-2.6 1.8-2.2.7-4.6 1.1-7.1 1.1-2.1 0-4.1-.3-6-.9-1.4 2.3-2.9 4.6-4.6 7-1.9 2.7-3.6 4.6-4.9 5.6-1.4 1-2.9 1.5-4.6 1.5-1.9 0-3.4-.7-4.4-2.2-1-1.5-1.6-3.9-1.8-7.3l-.4-5.3c-1.5 4-2.8 7.1-4 9.2-1.2 2.1-2.4 3.6-3.5 4.4-1.2.8-2.6 1.2-4.1 1.2-2 0-3.5-.8-4.6-2.3-1.1-1.5-1.8-4-2.1-7.3-.6-6.7-.9-12.6-.9-17.6v-2.5c0-1.6.5-2.7 1.3-3.3.8-.6 2-.9 3.7-.9 1.2 0 2.2.3 2.8.8.6.6.9 1.5.9 2.8 0 5.5.3 12.7 1 21.5 3.3-6.9 6.3-14 9-21.5.5-1.4 1.2-2.4 1.9-2.9s1.6-.8 2.7-.8c1.3 0 2.2.3 2.7.8s.8 1.5.8 2.8c0 5.5.3 12.7 1 21.5 2.9-4.3 5-7.7 6.5-10.2-.7-1.4-1.1-3-1.1-5 0-1.6.4-3.2 1.1-4.8.7-1.5 1.7-2.8 3-3.7 1.2-1 2.7-1.4 4.2-1.4 1.4 0 2.5.5 3.4 1.5.9 1 1.3 2.4 1.3 4.3 0 2.2-.6 4.6-1.7 7.4 1.8-.1 4.2-.5 7.3-1.1l1.9-.4c-.1.1.2.1.5.1z"/>
  <path d="M133.4 52.5c.4.6.5 1.4.5 2.4 0 1.9-.5 3.4-1.4 4.5-1.8 2.2-4.3 4.2-7.5 6-3.2 1.8-6.7 2.7-10.4 2.7-5 0-9-1.4-11.7-4.1-2.8-2.7-4.2-6.5-4.2-11.2 0-3.3.7-6.4 2.1-9.3 1.4-2.9 3.3-5.1 5.8-6.8 2.5-1.7 5.3-2.5 8.4-2.5 2.8 0 5 .8 6.7 2.5 1.7 1.7 2.5 3.9 2.5 6.7 0 3.3-1.2 6.2-3.6 8.5s-6.4 4.3-12.1 5.7c1.2 2.2 3.5 3.3 6.8 3.3 2.2 0 4.6-.8 7.4-2.3 2.8-1.5 5.1-3.5 7.2-5.9.6-.7 1.2-1 1.9-1 .8-.1 1.3.2 1.6.8zm-24.1-8.2c-1.2 2.1-1.8 4.6-1.8 7.5v.1c2.8-.7 5.1-1.7 6.7-3 1.6-1.3 2.4-2.9 2.4-4.7 0-.9-.3-1.6-.8-2.2-.5-.6-1.2-.8-2.1-.8-1.7 0-3.2 1-4.4 3.1z"/>
  <path d="M131.9 62.5c-2.2-3.7-3.3-9-3.3-16.1 0-6.2.8-12.9 2.3-20.2 1.5-7.3 3.8-13.5 6.7-18.6 3-5.1 6.5-7.7 10.5-7.7 2.2 0 4 .9 5.3 2.8 1.3 1.9 2 4.4 2 7.4 0 3.9-.7 7.8-2.2 11.7-1.5 3.9-4 8-7.4 12.2 2.4.2 4.4 1 6.2 2.4 1.8 1.4 3.1 3.2 4 5.4.9 2.2 1.4 4.6 1.4 7.2 0 3.6-.7 6.8-2.1 9.7-1.4 2.9-3.3 5.1-5.6 6.7-2.3 1.6-4.8 2.4-7.4 2.4-4.7.2-8.2-1.6-10.4-5.3zm14.9-4.9c1.1-1.8 1.7-4.4 1.7-7.8 0-2.6-.5-4.6-1.4-6-1-1.3-2.1-2-3.5-2-1.7 0-3.1.9-4.2 2.6s-1.7 4.2-1.7 7.6c0 2.9.5 5 1.4 6.3 1 1.3 2.2 2 3.6 2 1.6 0 3-.9 4.1-2.7zm-1-33.9c1.9-4.4 2.8-8.4 2.8-11.8 0-1.5-.2-2.7-.5-3.5-.4-.8-.9-1.2-1.5-1.2-1 0-2 1.4-3.1 4.3s-2.2 6.7-3.1 11.6c-1 4.9-1.7 10.2-2.2 16.1 3.1-5.9 5.7-11 7.6-15.5zm78 28.8c.4.6.5 1.4.5 2.4 0 1.9-.5 3.4-1.4 4.5-2 2.4-4.1 4.5-6.5 6.2-2.4 1.7-4.7 2.6-7 2.6-3.6 0-6.4-2.1-8.4-6.4-2 2.5-3.8 4.2-5.3 5.1-1.5.9-3.3 1.3-5.3 1.3-2.9 0-5.3-1.1-7.2-3.3-1.9-2.2-2.8-5-2.8-8.5 0-3.8.8-7.4 2.4-10.7 1.6-3.3 3.9-6 6.7-8.1 2.9-2.1 6.1-3.3 9.6-3.7.9-9.3 2.7-17.3 5.2-23.9 2.6-6.6 5.9-9.9 10.1-9.9 2.1 0 3.8.9 5.1 2.8 1.4 1.9 2.1 4.7 2.1 8.5 0 5.4-1.3 11.7-4 18.9-2.6 7.2-6.2 14.6-10.6 22.2.2 2.8.6 4.8 1.3 6 .6 1.2 1.5 1.8 2.5 1.8 1.3 0 2.6-.6 4-1.7 1.3-1.2 3.1-3.1 5.4-5.8.6-.7 1.2-1 1.9-1 .8-.2 1.3.1 1.7.7zm-28 7.2c.9-.7 2.1-2.1 3.5-4.1-.5-2.6-.7-5.5-.7-8.7 0-1.2 0-3 .1-5.6-2.6.8-4.8 2.6-6.6 5.3-1.8 2.7-2.6 5.7-2.6 9 0 3.5 1.2 5.3 3.6 5.3.9-.1 1.8-.5 2.7-1.2zm15.3-47.8c-.9 3.2-1.7 7.5-2.3 12.7-.6 5.2-1.1 10.7-1.4 16.4 5.4-11.7 8.1-21.1 8.1-28.2 0-1.8-.2-3.2-.5-4.2s-.7-1.5-1.1-1.5c-1 0-1.9 1.6-2.8 4.8z"/>
  <path d="M252.1 52.5c.4.6.5 1.4.5 2.4 0 1.9-.5 3.4-1.4 4.5-1.8 2.2-4.3 4.2-7.5 6-3.2 1.8-6.7 2.7-10.4 2.7-5 0-9-1.4-11.7-4.1-2.8-2.7-4.2-6.5-4.2-11.2 0-3.3.7-6.4 2.1-9.3 1.4-2.9 3.3-5.1 5.8-6.8 2.5-1.7 5.3-2.5 8.4-2.5 2.8 0 5 .8 6.7 2.5 1.7 1.7 2.5 3.9 2.5 6.7 0 3.3-1.2 6.2-3.6 8.5s-6.4 4.3-12.1 5.7c1.2 2.2 3.5 3.3 6.8 3.3 2.2 0 4.6-.8 7.4-2.3 2.8-1.5 5.1-3.5 7.2-5.9.6-.7 1.2-1 1.9-1 .7-.1 1.2.2 1.6.8zM228 44.3c-1.2 2.1-1.8 4.6-1.8 7.5v.1c2.8-.7 5.1-1.7 6.7-3 1.6-1.3 2.4-2.9 2.4-4.7 0-.9-.3-1.6-.8-2.2-.5-.6-1.2-.8-2.1-.8-1.7 0-3.2 1-4.4 3.1z"/>
  <path d="M254.5 67.9c-1.3-1.2-2-2.4-2-3.9 0-1.2.5-2.3 1.4-3.2.9-.9 2.3-1.4 4-1.4.6 0 1.4.1 2.2.2.8.1 1.5.2 1.9.3 0-1.2-.3-2.4-.8-3.5s-1.1-2.2-1.9-3.2c-.8-1-1.5-1.9-2.2-2.7-1.5 2.8-3 5.2-4.4 7.1-1.5 1.9-3.1 3.6-4.8 5.3-.9.9-1.8 1.3-2.7 1.3-.8 0-1.4-.3-1.9-.8-.5-.6-.7-1.2-.7-2.1 0-1 .3-1.8 1-2.7l.9-1.2c2.6-3.3 4.6-6 6-8.1.8-1.4 1.8-3.3 2.9-5.6 1.1-2.3 2.2-4.7 3.2-7.2.9-2.1 2.8-3.2 5.7-3.2 1.3 0 2.3.1 2.8.4.5.2.8.6.8 1.2 0 .3-.1.7-.3 1.4-.2.6-.5 1.2-.8 1.9-.9 1.7-1.3 3.2-1.3 4.4 0 .7.3 1.5.8 2.4.5.9 1.3 1.9 2.3 3.2 1.5 2 2.7 3.7 3.5 5.1.8 1.4 1.2 3 1.2 4.6 0 .5 0 1.2-.1 2 2.4-.9 5.1-3.3 8.3-7.3.6-.7 1.2-1 1.9-1 .6 0 1.1.3 1.5.9.4.6.5 1.4.5 2.4 0 1.8-.5 3.3-1.4 4.5-2.4 3-4.7 5-6.9 6.1-2.2 1.1-4.9 1.7-8.1 1.8-1.9 1.6-4.2 2.4-6.8 2.4-2.5-.1-4.4-.7-5.7-1.8z"/>
  <path d="M279.6 64.7c-1.4-2.2-2.1-5.1-2.1-8.8 0-2.2.3-4.9.8-8.3.6-3.4 1.3-6.5 2.1-9.5.4-1.5 1-2.6 1.7-3.2.7-.6 1.9-.9 3.5-.9 2.4 0 3.7.8 3.7 2.4 0 1.2-.5 4-1.4 8.4-1.2 5.3-1.7 8.9-1.7 10.7 0 1.4.2 2.5.6 3.3.4.8 1 1.2 1.9 1.2.9 0 1.9-.6 3.2-1.8 1.3-1.2 3-3.1 5.2-5.7.6-.7 1.2-1 1.9-1 .6 0 1.1.3 1.5.9.4.6.5 1.4.5 2.4 0 1.9-.5 3.4-1.4 4.5-4.8 5.8-9.2 8.7-13.3 8.7-3 0-5.3-1.1-6.7-3.3zm2.8-36.7c-1-.9-1.5-2.2-1.5-3.9 0-1.7.7-3.1 2-4.2s3-1.7 4.9-1.7c1.8 0 3.2.4 4.3 1.3 1.1.9 1.7 2.1 1.7 3.7 0 1.9-.6 3.4-1.9 4.6-1.2 1.1-2.9 1.7-5 1.7-1.9-.1-3.4-.6-4.5-1.5z"/>
  <path d="M333.6 52.7c.4.6.5 1.4.5 2.3 0 1.1-.2 2-.5 2.6-.3.6-.9 1.2-1.6 1.7-4.1 2.8-7.2 4.8-9.1 6.2l-4.6 3.1c-1.8 9.9-4.2 17.7-7.2 23.4s-6.7 8.5-11.3 8.5c-2.4 0-4.4-.8-6-2.3-1.5-1.5-2.3-3.5-2.3-5.9 0-3.4 1.3-7.1 4-11 2.7-3.9 7.7-8.7 15.1-14.4l.4-2.8c-.8 1.3-1.9 2.3-3.2 3-1.3.7-2.6 1-3.9 1-3 0-5.4-1.1-7.1-3.2-1.8-2.2-2.7-5-2.7-8.5 0-3.8.9-7.5 2.7-10.9 1.8-3.4 4.1-6.2 7.1-8.3 3-2.1 6.1-3.1 9.4-3.1 1.1 0 1.8.2 2.1.6.4.4.7 1.1.9 2.2.9-.2 2-.3 3.2-.3 1.2 0 2.1.2 2.6.5.5.4.8 1.1.8 2.1 0 .6 0 1-.1 1.4-.2 1.5-.8 5.3-1.8 11.3-.2 1.2-.4 2.4-.6 3.8-.2 1.4-.4 2.8-.7 4.4 3.7-2.9 7.2-5.4 10.7-7.6.6-.4 1.2-.6 1.7-.6.6-.1 1.1.2 1.5.8zm-28.8 36.4c1.5-2.9 3-7.5 4.4-13.8-3.7 3.2-6.4 6-8 8.6-1.6 2.5-2.4 4.8-2.4 6.7 0 .8.2 1.5.5 2s.8.8 1.5.8c1.1.1 2.5-1.4 4-4.3zm5.1-30.3c1-1.3 1.7-3.3 2.2-5.8l2.3-12.3c-2 0-3.8.8-5.5 2.3-1.7 1.5-3 3.4-4 5.8s-1.5 4.9-1.5 7.6c0 1.5.3 2.6.9 3.3.6.7 1.4 1.1 2.5 1.1 1 0 2.1-.7 3.1-2z"/>
  <path d="M330.2 65.2c-.7-1.9-1.1-5-1.1-9.2 0-6.2.9-12.2 2.7-17.8.4-1.4 1.1-2.4 2.1-3.1 1-.6 2.4-1 4.1-1 1 0 1.6.1 2 .4.4.2.6.7.6 1.4 0 .8-.4 2.5-1.1 5.2-.5 1.9-.9 3.6-1.2 5s-.5 3.2-.7 5.3c1.6-4.1 3.4-7.5 5.3-10.1 2-2.6 3.9-4.4 5.8-5.5 1.9-1.1 3.6-1.7 5.2-1.7 1.5 0 2.7.4 3.5 1.2s1.2 2 1.2 3.5c0 1.2-.3 3.6-.8 7.1-.5 2.9-.9 5.7-1.2 8.3-.3 2.6-.4 5.5-.4 8.7 0 1.8-.4 3.1-1.1 3.9-.7.8-2 1.2-3.6 1.2s-2.7-.4-3.5-1.2c-.7-.8-1.1-2-1.1-3.7 0-1.9.3-5.1 1-9.5.6-3.8.9-6.3.9-7.3 0-.8-.3-1.2-.8-1.2-.6 0-1.5.8-2.6 2.4-1.1 1.6-2.3 3.7-3.5 6.4-1.2 2.6-2.1 5.4-2.8 8.4-.5 2.3-1.1 3.8-1.8 4.6-.7.8-1.8 1.2-3.3 1.2-1.8-.1-3-1-3.8-2.9zM8.9 51.2v-5l27.8-16.6 4.1 6.5L24.6 46 18 48.5l6.5 2.2 16.6 9.9-4.1 6.5L8.9 51.2zM381 91.4l7.1 3.2-25.7 58.2-7.1-3.3L381 91.4zm40.4 25v5L393.6 138l-4.1-6.6 16.1-9.9 6.6-2.6-6.5-2.2-16.6-9.9 4.1-6.4 28.2 16zM5.8 124.5c0-1.6.3-3.1.8-4.6.5-1.4 1.3-2.8 2.2-4.1.9-1.3 2.1-2.4 3.4-3.5 1.3-1.1 2.7-2.1 4.2-2.9-1.1-1.4-1.9-2.8-2.6-4.2-.7-1.4-1-2.9-1-4.5 0-1 .2-2.1.6-3.2.4-1.1 1-2 1.9-2.9.9-.9 2-1.6 3.4-2.1s3.1-.8 5-.8 3.6.2 4.9.7c1.4.5 2.5 1.1 3.3 1.8.8.8 1.4 1.6 1.8 2.6.4 1 .6 2 .6 3 0 1.7-.6 3.5-1.8 5.4-1.2 1.9-3.3 3.7-6.2 5.4 1.5 2.3 2.9 4.3 4.4 6.2 1.5 1.9 3.1 3.8 4.9 5.6 1-1 1.8-2.4 2.6-3.9.8-1.6 1.5-3.2 2-4.8l5.9 3.1c-.3.8-.6 1.6-1 2.5-.4.9-.9 1.8-1.4 2.7-.5.9-1.1 1.8-1.6 2.6s-1.1 1.5-1.5 2.1c1.3 1.2 2.5 2.2 3.5 2.9 1 .7 2 1.3 3.1 1.9l-4.3 6c-1.2-.5-2.4-1.3-3.6-2.2-1.2-.9-2.5-1.9-3.7-3.1-1.5 1.4-3.4 2.6-5.7 3.7-2.3 1.1-5.1 1.6-8.4 1.6-2.2 0-4.2-.3-6.1-.9-1.9-.6-3.6-1.4-5-2.6-1.4-1-2.6-2.4-3.4-4-.8-1.6-1.2-3.5-1.2-5.5zm24.8 2.8c-2.1-2.2-4.1-4.4-5.9-6.6-1.8-2.2-3.3-4.3-4.6-6.3-2 1.6-3.5 3.1-4.6 4.5-1.1 1.4-1.6 3.1-1.6 4.9 0 2.1.8 3.8 2.4 5 1.6 1.2 3.6 1.8 6.2 1.8 1.7 0 3.3-.3 4.7-1 1.5-.7 2.7-1.5 3.4-2.3zM21 101c0 1.8.8 3.7 2.3 5.7 1.6-1 2.8-2 3.6-3 .7-.9 1.1-1.8 1.1-2.6 0-1-.3-1.8-.9-2.4-.6-.6-1.5-.9-2.7-.9-1.1 0-2 .3-2.5.9-.6.6-.9 1.4-.9 2.3zm49.8 4.2h6l.9 3.8h.3c1.1-1.6 2.4-2.8 3.9-3.5 1.5-.8 3.3-1.1 5.4-1.1 3.9 0 6.9 1.2 8.9 3.7s3 6.5 3 12.1c0 2.7-.3 5.1-.9 7.3-.6 2.2-1.6 4-2.8 5.5-1.2 1.5-2.8 2.7-4.5 3.5-1.8.8-3.8 1.2-6.1 1.2-1.3 0-2.4-.1-3.2-.3-.8-.2-1.7-.5-2.5-.9v12.9H71v-44.2zm14.1 6c-1.6 0-2.8.4-3.7 1.2-.9.8-1.6 2-2.1 3.6v13.1c.6.5 1.2.8 1.9 1.1.7.3 1.6.4 2.7.4 2.4 0 4.1-.8 5.3-2.5 1.2-1.7 1.8-4.4 1.8-8.2 0-2.8-.5-4.9-1.4-6.4-1-1.5-2.5-2.3-4.5-2.3zm27.8-6v17.9c0 2.6.3 4.4.9 5.5.6 1.1 1.8 1.7 3.6 1.7 1.6 0 2.8-.5 3.9-1.4 1-.9 1.8-2.1 2.3-3.4v-20.3h8.2v21.9c0 1.7.1 3.4.3 5.1.2 1.7.4 3.2.8 4.5h-6.2l-1.4-4.7h-.3c-1 1.6-2.3 2.9-4 4-1.7 1-3.8 1.6-6.1 1.6-1.6 0-3-.2-4.3-.6-1.3-.4-2.3-1.1-3.1-2.1-.8-1-1.5-2.3-1.9-3.9-.4-1.6-.7-3.7-.7-6.2v-19.6h8zm26-12.6h8.2v15.1h.3c.9-1 2-1.8 3.4-2.4 1.4-.6 2.9-.9 4.6-.9 3.8 0 6.7 1.3 8.7 3.9 2 2.6 3 6.5 3 11.8 0 5.7-1.4 10-4.2 12.9-2.8 2.9-6.6 4.4-11.5 4.4-2.7 0-5.1-.2-7.4-.7-2.2-.4-3.9-.9-5-1.5V92.6zm14.1 18.8c-1.5 0-2.7.4-3.7 1.2-.9.8-1.7 1.9-2.2 3.4v13.7c.7.3 1.4.6 2.2.7.8.1 1.6.2 2.5.2 2.2 0 3.9-.8 5.1-2.4 1.2-1.6 1.7-4.2 1.7-7.7 0-6.1-1.9-9.1-5.6-9.1zm28.1 14.7c0 1.5.2 2.5.6 3.2.4.7 1 1 1.8 1 .5 0 1 0 1.5-.1s1.1-.3 1.8-.6l.9 6.4c-.7.3-1.7.7-3.1 1-1.4.3-2.8.5-4.3.5-2.4 0-4.2-.6-5.5-1.7-1.3-1.1-1.9-3-1.9-5.5V92.6h8.2v33.5zm9.7-29.8c0-1.2.5-2.3 1.4-3.1.9-.9 2.2-1.3 3.7-1.3 1.6 0 2.9.4 3.9 1.3s1.5 1.9 1.5 3.1c0 1.2-.5 2.2-1.5 3.1-1 .8-2.3 1.2-3.9 1.2s-2.8-.4-3.7-1.2c-1-.9-1.4-1.9-1.4-3.1zm1.2 8.9h8.2v31.5h-8.2v-31.5zM221 128c0-.8-.4-1.5-1.1-2s-1.6-1-2.6-1.4c-1.1-.4-2.2-.9-3.5-1.3-1.3-.4-2.4-1-3.5-1.8s-1.9-1.8-2.6-3c-.7-1.2-1.1-2.7-1.1-4.6 0-3.1.9-5.5 2.8-7.1 1.8-1.6 4.5-2.5 8-2.5 2.4 0 4.6.3 6.5.8 1.9.5 3.4 1.1 4.5 1.7l-1.8 5.9c-1-.4-2.2-.8-3.7-1.2-1.5-.4-3-.6-4.5-.6-2.4 0-3.7.9-3.7 2.8 0 .8.4 1.4 1.1 1.8.7.5 1.6.9 2.6 1.3s2.2.8 3.5 1.3c1.3.5 2.4 1.1 3.5 1.8 1 .7 1.9 1.7 2.6 2.9.7 1.2 1.1 2.7 1.1 4.5 0 3.2-1 5.7-3.1 7.5-2 1.8-5.1 2.7-9.2 2.7-2.2 0-4.3-.3-6.3-.9-2-.6-3.5-1.2-4.8-2l2.3-6.1c1 .5 2.2 1.1 3.8 1.6 1.6.5 3.2.8 4.9.8 1.2 0 2.2-.2 2.9-.7 1-.3 1.4-1.1 1.4-2.2zm32.8 8.7v-17.9c0-2.6-.4-4.4-1.1-5.5-.7-1.1-2-1.7-3.9-1.7-1.4 0-2.7.5-3.8 1.4-1.2.9-1.9 2.2-2.3 3.6v20.1h-8.2V92.6h8.2v16.1h.3c1-1.3 2.2-2.4 3.7-3.2 1.5-.8 3.3-1.2 5.6-1.2 1.6 0 3 .2 4.2.6 1.2.4 2.2 1.1 3.1 2.1.8 1 1.4 2.3 1.8 3.9.4 1.7.6 3.7.6 6.1v19.6h-8.2zm14.6-40.4c0-1.2.5-2.3 1.4-3.1.9-.9 2.2-1.3 3.7-1.3 1.6 0 2.9.4 3.9 1.3s1.5 1.9 1.5 3.1c0 1.2-.5 2.2-1.5 3.1-1 .8-2.3 1.2-3.9 1.2s-2.8-.4-3.7-1.2c-.9-.9-1.4-1.9-1.4-3.1zm1.2 8.9h8.2v31.5h-8.2v-31.5zm35.5 31.5v-17.9c0-2.6-.4-4.4-1.1-5.5-.7-1.1-2-1.7-3.7-1.7-1.6 0-2.9.5-3.9 1.4-1.1.9-1.8 2-2.3 3.4v20.4h-8.2v-31.5h6.5l.9 4.2h.3c1-1.3 2.2-2.5 3.8-3.5 1.6-1 3.7-1.5 6.2-1.5 1.6 0 2.9.2 4.2.6 1.2.4 2.2 1.1 3.1 2.1.8 1 1.5 2.3 1.9 3.9.4 1.7.6 3.7.6 6.1v19.6h-8.3zm41.7 0c0 4.6-1.2 7.9-3.7 10.1-2.5 2.2-5.9 3.2-10.4 3.2-3 0-5.4-.2-7.2-.6-1.7-.4-3.1-.9-3.9-1.3l1.7-6.5c1 .4 2.1.8 3.4 1.1s2.9.6 4.8.6c2.9 0 4.8-.6 5.8-1.9 1-1.2 1.5-3 1.5-5.2v-2h-.3c-1.5 2-4.1 3-7.8 3-4.1 0-7.1-1.3-9.1-3.8s-3-6.5-3-11.8c0-5.6 1.3-9.9 4-12.8 2.7-2.9 6.6-4.3 11.7-4.3 2.7 0 5.1.2 7.2.6 2.1.4 3.9.8 5.2 1.3v30.3zm-13.8-6.1c1.6 0 2.8-.4 3.7-1.1.9-.7 1.5-1.8 2-3.2v-14.2c-1.3-.5-2.9-.8-4.9-.8-2.1 0-3.7.8-4.9 2.4-1.2 1.6-1.8 4.1-1.8 7.5 0 3.1.5 5.4 1.5 7 1 1.6 2.5 2.4 4.4 2.4z"/>
</svg>
