<?xml version="1.0" encoding="utf-8"?>
<svg xmlns="http://www.w3.org/2000/svg" style="display: none">
<symbol id="alert" viewBox="0 0 24 24"><path d="M12 1l-12 22h24l-12-22zm-1 8h2v7h-2v-7zm1 11.25c-.69 0-1.25-.56-1.25-1.25s.56-1.25 1.25-1.25 1.25.56 1.25 1.25-.56 1.25-1.25 1.25z"/>
</symbol>
<symbol id="close" viewBox="0 0 24 24"><path d="M24 20.188l-8.315-8.209 8.2-8.282-3.697-3.697-8.212 8.318-8.31-8.203-3.666 3.666 8.321 8.24-8.206 8.313 3.666 3.666 8.237-8.318 8.285 8.203z"/>
</symbol>
<symbol id="menu" viewBox="0 0 24 24"><path d="M24 6h-24v-4h24v4zm0 4h-24v4h24v-4zm0 8h-24v4h24v-4z"/>
</symbol>
<symbol id="slides" viewBox="0 0 24 24"><path d="M16.488 20l3.414 4h-2.627l-3.42-4h2.633zm-5.488 4h2v-4h-2v4zm-6.918 0h2.627l3.42-4h-2.633l-3.414 4zm4.918-18v7l7-3.398-7-3.602zm13-3v13h1v2h-22v-2h1v-13h-1v-3h22v3h-1zm-2 0h-16v13h16v-13z"/>
</symbol></svg>